# xmcd
#
# Track frame offsets: 
#        150
#        54925
#        95160
#        117645
#        197032
#
# Disc length: 3321 seconds
#
# Revision: 6
# Processed by: cddbd v1.5.2PL0 Copyright (c) Steve Scherf et al.
# Submitted via: ExactAudioCopy v0.99pb5
#
DISCID=440cf705
DTITLE=FRUMPY - LIVE [CD1)
DYEAR=1972
DGENRE=Krautrock
TTITLE0=Keep On Going
TTITLE1=Singing Songs
TTITLE2=Backwater Blues
TTITLE3=Duty
TTITLE4=To My Mother
EXTD=YEAR: 1972
EXTT0=
EXTT1=
EXTT2=
EXTT3=
EXTT4=
PLAYORDER=
